<?xml version="1.0" standalone="no"?>
<!DOCTYPE svg PUBLIC "-//W3C//DTD SVG 20010904//EN"
 "http://www.w3.org/TR/2001/REC-SVG-20010904/DTD/svg10.dtd">
<svg version="1.0" xmlns="http://www.w3.org/2000/svg"
 width="576.000000pt" height="576.000000pt" viewBox="0 0 576.000000 576.000000"
 preserveAspectRatio="xMidYMid meet">
<metadata>
Created by potrace 1.11, written by Peter Selinger 2001-2013
</metadata>
<g transform="translate(0.000000,576.000000) scale(0.100000,-0.100000)"
fill="#000000" stroke="none">
<path d="M0 2880 l0 -2880 2880 0 2880 0 0 985 0 985 -35 45 c-42 56 -59 114
-51 179 6 50 47 133 72 143 12 4 14 246 14 1714 l0 1709 -2880 0 -2880 0 0
-2880z m2764 2726 c92 -38 150 -126 150 -226 0 -179 -173 -284 -335 -202 -105
53 -157 167 -125 275 18 62 65 119 121 147 48 23 141 26 189 6z m-1797 -432
c40 -23 98 -86 121 -130 9 -18 6 -26 -23 -54 -19 -19 -36 -32 -38 -29 -2 2
-13 20 -25 39 -11 19 -34 48 -50 63 -38 37 -86 34 -115 -5 l-20 -27 28 -108
c34 -129 30 -166 -21 -223 -63 -70 -139 -88 -219 -51 -47 21 -124 96 -151 147
l-19 35 40 34 40 34 13 -32 c29 -68 92 -127 136 -127 8 0 28 12 45 26 38 31
39 60 11 159 -33 114 -23 181 35 235 57 53 135 59 212 14z m1208 -173 c55 -25
111 -86 130 -140 31 -92 13 -174 -55 -242 -109 -109 -286 -85 -367 51 -28 46
-33 64 -33 117 0 101 41 172 123 212 54 27 146 28 202 2z m-575 -613 c137 -82
161 -258 51 -368 -92 -91 -218 -94 -318 -6 -58 51 -82 104 -83 179 0 137 91
227 230 227 56 0 74 -5 120 -32z m-625 -582 c84 -36 145 -129 145 -224 0 -132
-96 -226 -230 -226 -212 0 -321 253 -174 401 69 68 168 87 259 49z m1231 -22
c66 -40 107 -107 112 -184 5 -73 -11 -122 -57 -173 -88 -98 -230 -104 -329
-14 -57 53 -82 106 -82 177 0 93 50 172 135 212 62 29 158 21 221 -18z m2381
7 c85 -43 133 -122 133 -216 0 -159 -140 -266 -291 -221 -149 43 -220 201
-151 337 58 114 195 159 309 100z m-4197 -591 c44 -22 97 -80 116 -126 18 -42
18 -135 1 -177 -47 -110 -164 -167 -278 -133 -106 30 -179 125 -179 232 0 99
77 201 171 224 47 12 125 3 169 -20z m2416 -16 c72 -44 114 -118 114 -201 0
-35 -6 -78 -13 -96 -36 -85 -117 -137 -214 -137 -164 1 -278 155 -231 314 15
50 92 131 139 145 63 19 152 8 205 -25z m1177 11 c144 -68 185 -267 79 -378
-119 -126 -338 -76 -398 90 -43 121 21 254 143 299 46 17 128 12 176 -11z
m-579 -609 c81 -47 136 -158 120 -244 -21 -119 -111 -192 -231 -192 -250 1
-333 332 -111 444 45 24 62 27 115 23 43 -3 76 -13 107 -31z m-618 -590 c123
-57 175 -206 115 -324 -41 -79 -113 -122 -206 -122 -66 0 -108 16 -159 60 -56
50 -80 103 -80 180 0 36 6 76 13 90 66 125 195 173 317 116z m1444 -101 l45
-45 -148 -295 c-81 -162 -151 -295 -155 -295 -4 0 -26 18 -47 40 l-39 40 38
71 39 71 -79 79 -78 79 -63 -35 c-35 -19 -69 -35 -76 -35 -7 0 -30 18 -52 40
l-38 39 294 145 c162 79 299 145 304 145 6 1 31 -19 55 -44z m1177 -123 c147
-76 183 -258 74 -375 -89 -96 -237 -98 -334 -4 -81 79 -98 197 -42 292 60 103
195 141 302 87z m-3246 -364 c51 -15 114 -69 141 -122 31 -57 31 -155 1 -212
-61 -116 -195 -157 -314 -96 -148 74 -180 261 -66 376 62 61 149 81 238 54z
m2624 -225 c132 -44 200 -205 139 -327 -74 -145 -262 -175 -378 -60 -47 48
-70 102 -70 169 -1 167 149 273 309 218z m-568 -611 c99 -51 153 -172 123
-276 -15 -55 -69 -120 -121 -146 -50 -26 -149 -27 -204 -1 -96 44 -159 166
-136 265 20 86 78 151 159 177 42 13 134 3 179 -19z m1162 12 c106 -31 181
-145 168 -256 -24 -196 -259 -273 -401 -132 -111 112 -86 301 49 371 68 36
109 40 184 17z"/>
<path d="M4013 1752 l-122 -67 56 -57 c31 -31 60 -55 64 -53 4 3 31 49 62 102
73 131 79 143 70 142 -4 0 -63 -30 -130 -67z"/>
</g>
</svg>
